# Blender v2.76 (sub 0) OBJ File: 'car.blend'
# www.blender.org
mtllib car.mtl
o Cube
v 3.767904 -1.000000 -1.000000
v 3.767904 -1.000000 1.000000
v -3.001595 -1.000003 0.900763
v -3.001595 -1.000003 -0.888211
v 1.000000 1.000000 -0.999999
v 0.999999 1.000000 1.000001
v -1.000000 1.000000 1.000000
v -1.000000 1.000000 -1.000000
v 4.102358 -1.000000 0.000000
v 0.000000 -1.000000 -1.495320
v 3.493163 0.000000 -0.726887
v 0.000000 -1.000000 1.495320
v 3.493163 0.000000 0.726888
v -3.001595 -1.000003 0.006438
v -2.988865 0.470889 1.000000
v -2.988865 0.470889 -1.000000
v 1.000000 1.000000 0.000001
v 0.000000 1.000000 -1.147293
v -0.000001 1.000000 1.147294
v -1.000000 1.000000 -0.000000
v 0.000000 0.000000 -1.495320
v -2.988865 0.470889 -0.000000
v -0.000000 0.000000 1.495320
v 3.773349 0.000000 0.000000
v -0.000000 1.000000 0.000000
v 0.000000 -1.000000 -0.000000
v -1.494432 -1.000000 1.404570
v 2.168669 0.311304 1.000000
v -2.003457 0.499872 0.998662
v -0.500000 1.000000 1.147294
v 1.668670 -1.000000 1.404570
v 3.767904 -0.500000 1.000000
v -3.147249 -0.499914 0.961760
v 0.499999 1.000000 1.147294
v -1.494433 0.000000 1.404570
v 1.668669 0.000000 1.404571
v -0.000000 -0.500000 1.495320
v -0.000000 0.500000 1.359440
v 1.084334 0.500000 1.276937
v 1.668669 -0.500000 1.404570
v -1.494432 -0.500000 1.404570
v -0.997216 0.500000 1.276937
v -1.494432 -1.000000 -1.404571
v 2.168670 0.311304 -1.000000
v -1.994432 0.500000 -1.000000
v -0.500000 1.000000 -1.147294
v 1.668670 -1.000000 -1.404570
v 3.767905 -0.500000 -1.000000
v -3.147248 -0.496298 -0.964648
v 0.500000 1.000000 -1.147293
v -1.494432 0.000000 -1.404571
v 1.668670 0.000000 -1.404570
v 0.000000 0.500000 -1.359439
v 0.000000 -0.500000 -1.495320
v 1.668670 -0.500000 -1.404570
v 1.084335 0.500000 -1.276936
v -0.997216 0.500000 -1.276937
v -1.494432 -0.500000 -1.404571
v 1.000000 1.000000 0.500001
v -0.750000 1.000000 -1.000000
v -0.750000 1.000000 1.000000
v -1.000000 1.000000 -0.500000
v 1.000000 1.000000 -0.499999
v 0.250000 1.000000 -1.147293
v 0.249999 1.000000 1.147294
v -1.000000 1.000000 0.500000
v -0.000000 1.000000 0.500000
v 0.000000 1.000000 -0.500000
v 0.500000 1.000000 0.000000
v -0.500000 1.000000 0.000000
v -0.250000 1.000000 1.147294
v 0.749999 1.000000 1.000000
v -0.250000 1.000000 -1.147293
v 0.750000 1.000000 -1.000000
v -1.994432 0.495539 -0.000000
v 2.168670 0.311304 0.000000
v -3.001595 -1.000003 -0.493562
v -3.001595 -1.000003 0.506438
v -3.133910 -0.014555 1.000000
v -3.133910 -0.010939 -1.000000
v -2.988865 0.470889 -0.500000
v -2.988865 0.470889 0.500000
v -3.133910 -0.264555 -0.000000
v -3.005298 -0.749914 0.916761
v -3.001595 -0.750003 -0.911443
v -3.147249 -0.509618 -0.001444
v -3.005298 -0.754766 -0.001444
v -2.988865 0.225741 -0.000000
v -3.133910 -0.019407 -0.000000
v 4.102358 -0.500000 0.000000
vn 0.000000 -1.000000 0.000000
vn 0.000000 1.000000 -0.000000
vn 0.507700 0.861500 0.000000
vn -0.235400 0.500800 0.833000
vn -0.450800 0.892600 0.002000
vn -0.298200 -0.114400 -0.947600
vn -0.123100 0.546900 -0.828100
vn 0.060200 0.287100 -0.956000
vn 0.054300 0.000000 -0.998500
vn -0.957600 0.285800 0.036200
vn -0.027100 0.999600 -0.002300
vn -0.249000 -0.034200 0.967900
vn 0.054300 -0.000000 0.998500
vn 0.048700 0.348400 0.936100
vn 0.948400 0.000000 0.317200
vn 0.948400 0.000000 -0.317200
vn 0.210800 0.976900 -0.034200
vn 0.060200 0.287100 0.956000
vn 0.292700 0.548100 0.783500
vn 0.273600 0.529100 0.803200
vn 0.189200 -0.000000 0.981900
vn 0.252000 0.318800 0.913700
vn -0.295400 -0.100300 0.950100
vn -0.060600 -0.000000 0.998200
vn -0.123100 0.547000 0.828000
vn -0.066500 0.285000 0.956200
vn -0.051600 0.345900 0.936900
vn 0.252000 0.318800 -0.913700
vn 0.189200 0.000000 -0.981900
vn 0.048700 0.348400 -0.936100
vn 0.273600 0.529100 -0.803200
vn 0.292700 0.548100 -0.783500
vn -0.236000 0.500900 -0.832700
vn -0.051600 0.345900 -0.936900
vn -0.066500 0.285000 -0.956200
vn -0.248300 -0.031400 -0.968200
vn -0.060600 0.000000 -0.998200
vn -0.957900 0.284800 -0.035600
vn -0.999600 0.027400 -0.003600
vn -0.999900 -0.014900 0.000000
vn -0.999600 0.027300 0.003700
vn -1.000000 -0.007600 -0.002100
vn -0.239400 0.072100 -0.968200
vn -0.239600 0.071600 0.968200
vn -0.027000 0.999600 0.002200
vn -0.449200 0.893400 -0.004000
vn -0.866000 -0.500000 -0.006500
vn -0.867400 -0.497700 0.003900
vn 0.210800 0.976900 0.034200
vn 0.786200 0.551100 0.279800
vn 0.786200 0.551100 -0.279800
usemtl Material
s off
f 26//1 12//1 27//1 3//1 78//1 14//1
f 25//2 70//2 20//2 66//2 7//2 61//2 30//2 71//2 19//2 67//2
f 6//3 28//3 76//3 17//3 59//3
f 42//4 30//4 61//4 7//4 29//4
f 8//5 45//5 75//5 20//5 62//5
f 58//6 43//6 4//6 85//6 49//6
f 57//7 51//7 16//7 45//7
f 56//8 52//8 21//8 53//8
f 55//9 47//9 10//9 54//9
f 80//10 89//10 88//10 22//10 81//10 16//10
f 82//11 15//11 29//11 75//11 22//11
f 33//12 41//12 35//12 79//12
f 40//13 36//13 23//13 37//13
f 39//14 34//14 65//14 19//14 38//14
f 2//15 9//15 90//15 32//15
f 1//16 48//16 90//16 9//16
f 11//17 44//17 76//17 24//17
f 17//2 69//2 25//2 67//2 19//2 65//2 34//2 72//2 6//2 59//2
f 5//2 74//2 50//2 64//2 18//2 68//2 25//2 69//2 17//2 63//2
f 18//2 73//2 46//2 60//2 8//2 62//2 20//2 70//2 25//2 68//2
f 10//1 26//1 14//1 77//1 4//1 43//1
f 1//1 9//1 26//1 10//1 47//1
f 9//1 2//1 31//1 12//1 26//1
f 36//18 39//18 38//18 23//18
f 13//19 28//19 39//19 36//19
f 28//20 6//20 72//20 34//20 39//20
f 31//13 40//13 37//13 12//13
f 2//21 32//21 40//21 31//21
f 32//22 13//22 36//22 40//22
f 27//23 41//23 33//23 84//23 3//23
f 12//24 37//24 41//24 27//24
f 37//24 23//24 35//24 41//24
f 35//25 42//25 29//25 15//25
f 23//26 38//26 42//26 35//26
f 38//27 19//27 71//27 30//27 42//27
f 52//9 55//9 54//9 21//9
f 11//28 48//28 55//28 52//28
f 48//29 1//29 47//29 55//29
f 50//30 56//30 53//30 18//30 64//30
f 5//31 44//31 56//31 50//31 74//31
f 44//32 11//32 52//32 56//32
f 46//33 57//33 45//33 8//33 60//33
f 18//34 53//34 57//34 46//34 73//34
f 53//35 21//35 51//35 57//35
f 49//36 80//36 51//36 58//36
f 21//37 54//37 58//37 51//37
f 54//37 10//37 43//37 58//37
f 79//38 15//38 82//38 22//38 88//38 89//38
f 33//39 79//39 89//39 83//39 86//39
f 78//40 3//40 84//40 87//40 14//40
f 49//41 86//41 83//41 89//41 80//41
f 4//42 77//42 14//42 87//42 85//42
f 80//43 16//43 51//43
f 79//44 35//44 15//44
f 81//45 22//45 75//45 45//45 16//45
f 29//46 7//46 66//46 20//46 75//46
f 85//47 87//47 86//47 49//47
f 84//48 33//48 86//48 87//48
f 24//49 76//49 28//49 13//49
f 44//3 5//3 63//3 17//3 76//3
f 32//50 90//50 24//50 13//50
f 48//51 11//51 24//51 90//51
