# Blender v2.76 (sub 0) OBJ File: 'door.blend'
# www.blender.org
mtllib door.mtl
o Cube
v 0.238544 -1.000000 -2.222184
v -0.238544 -1.000000 -2.222184
v 0.238544 1.578933 -2.222183
v -0.238544 1.578933 -2.222183
v 0.238544 -1.000000 -1.865518
v 0.238544 -1.000000 -1.872811
v 0.238544 -1.000000 -1.506413
v 0.238544 -1.000000 -1.507670
v 0.238544 -1.000000 -1.115273
v 0.238544 -1.000000 -1.116147
v -0.238544 -1.000000 -1.116147
v -0.238544 -1.000000 -1.115273
v -0.238544 -1.000000 -1.507670
v -0.238544 -1.000000 -1.506413
v -0.238544 -1.000000 -1.872811
v -0.238544 -1.000000 -1.865519
v 0.238544 1.578891 -1.865518
v 0.238544 1.317207 -1.863497
v 0.238544 1.329992 -1.506413
v 0.238544 1.784475 -1.507669
v 0.233724 1.793342 -1.114433
v 0.233724 2.223899 -1.115306
v -0.233724 2.223899 -1.115306
v -0.233724 1.793342 -1.114433
v -0.238544 1.784475 -1.507669
v -0.238544 1.329992 -1.506413
v -0.238544 1.317207 -1.863497
v -0.238544 1.578891 -1.865518
v -0.237294 1.805651 -0.033381
v -0.237294 1.801096 -0.402504
v -0.238543 2.236836 -0.414135
v -0.238543 2.231910 -0.768556
v 0.238543 1.364944 -0.038570
v 0.238543 1.360752 0.372873
v 0.238543 1.598218 0.372526
v 0.238543 1.595024 0.733443
v 0.238544 -1.000000 -0.409375
v 0.238544 -1.000000 -0.414136
v 0.238544 -1.000000 -0.766148
v 0.238544 -1.000000 -0.769432
v -0.238544 -1.000000 -0.766148
v -0.238544 -1.000000 -0.769432
v 0.237294 1.805651 -0.033381
v 0.237294 1.801096 -0.402504
v -0.238543 2.230710 -0.770828
v -0.238544 -1.000000 -0.040252
v -0.238544 -1.000000 -0.409375
v -0.238544 -1.000000 -0.414136
v -0.238544 -1.000000 -0.038570
v -0.238544 -1.000000 0.372873
v -0.238544 -1.000000 0.372525
v -0.238544 -1.000000 0.733442
v 0.238544 -1.000000 -0.038570
v 0.238544 -1.000000 0.372873
v 0.238544 -1.000000 0.372525
v 0.238544 -1.000000 0.733442
v -0.238543 1.364944 -0.038570
v -0.238543 1.360752 0.372873
v -0.238543 1.598218 0.372526
v -0.238543 1.595024 0.733443
v 0.238543 2.236836 -0.414135
v 0.238543 2.231910 -0.768556
v 0.238543 2.230710 -0.770828
v 0.238544 -1.000000 -0.040252
vt 0.684435 0.461829
vt 0.683030 0.919601
vt 0.601395 0.919350
vt 0.602799 0.461579
vt 0.684435 0.457769
vt 0.685839 0.000000
vt 0.795038 0.000335
vt 0.793633 0.458104
vt 0.886256 0.000250
vt 0.967892 0.000000
vt 0.968226 0.109199
vt 0.886591 0.109449
vt 0.490815 0.570782
vt 0.489146 0.570777
vt 0.489481 0.461579
vt 0.491150 0.461584
vt 0.488572 0.570777
vt 0.488285 0.570778
vt 0.487950 0.461580
vt 0.488237 0.461579
vt 0.705039 0.856049
vt 0.794853 0.856325
vt 0.794518 0.965524
vt 0.704704 0.965248
vt 0.174175 0.570778
vt 0.173975 0.570777
vt 0.174310 0.461579
vt 0.174510 0.461579
vt 0.886591 0.458047
vt 0.886256 0.348848
vt 0.967891 0.348598
vt 0.968226 0.457797
vt 0.168560 0.970385
vt 0.168225 0.861186
vt 0.258038 0.860911
vt 0.258373 0.970109
vt 0.423853 0.461579
vt 0.425257 0.919350
vt 0.343621 0.919601
vt 0.342217 0.461829
vt 0.972750 0.458052
vt 0.971346 0.915824
vt 0.972000 0.853469
vt 0.971081 0.458047
vt 0.976219 0.458047
vt 0.977443 0.857122
vt 0.977336 0.915820
vt 0.975931 0.458048
vt 0.884852 0.458047
vt 0.886256 0.915819
vt 0.796442 0.916094
vt 0.795038 0.458323
vt 0.978867 0.458048
vt 0.977463 0.915820
vt 0.978667 0.458047
vt 0.421575 0.000802
vt 0.422801 0.400269
vt 0.343442 0.400108
vt 0.342217 0.001046
vt 0.979067 0.458047
vt 0.980291 0.857109
vt 0.980272 0.915819
vt 0.795038 0.457772
vt 0.796442 0.000000
vt 0.974527 0.915820
vt 0.974419 0.857122
vt 0.975644 0.458047
vt 0.974419 0.458047
vt 0.973500 0.853469
vt 0.974154 0.915824
vt 0.491647 0.640624
vt 0.491906 0.556137
vt 0.601104 0.556472
vt 0.600845 0.640959
vt 0.503987 0.000549
vt 0.505218 0.401636
vt 0.504312 0.461579
vt 0.502898 0.000553
vt 0.426311 0.912175
vt 0.425976 0.802976
vt 0.506545 0.802729
vt 0.506880 0.911928
vt 0.422327 0.000800
vt 0.423740 0.461454
vt 0.491907 0.555752
vt 0.492196 0.461579
vt 0.601395 0.461914
vt 0.601106 0.556087
vt 0.262108 0.000800
vt 0.260694 0.461454
vt 0.180122 0.461579
vt 0.181537 0.000553
vt 0.340982 0.461579
vt 0.342217 0.864244
vt 0.259593 0.859446
vt 0.258373 0.461832
vt 0.491150 0.802394
vt 0.491394 0.723036
vt 0.600592 0.723371
vt 0.600349 0.802729
vt 0.180447 0.000549
vt 0.179217 0.401636
vt 0.094733 0.400186
vt 0.095960 0.000290
vt 0.588474 0.000290
vt 0.589701 0.400186
vt 0.262859 0.000802
vt 0.261634 0.400269
vt 0.491396 0.722284
vt 0.491643 0.641714
vt 0.600842 0.642049
vt 0.600595 0.722619
vt 0.340993 0.400108
vt 0.083844 0.461832
vt 0.082624 0.859446
vt 0.000000 0.864245
vt 0.001235 0.461579
vt 0.588859 0.000289
vt 0.590267 0.459040
vt 0.886256 0.677210
vt 0.968865 0.676957
vt 0.969199 0.786155
vt 0.886591 0.786409
vt 0.095575 0.000289
vt 0.094168 0.459039
vt 0.000000 0.456885
vt 0.001402 0.000000
vt 0.684435 0.458439
vt 0.794853 0.855714
vt 0.685654 0.856049
vt 0.981693 0.458047
vt 0.980291 0.914933
vt 0.980378 0.860713
vt 0.981613 0.458047
vt 0.168122 0.570777
vt 0.168042 0.570778
vt 0.167707 0.461579
vt 0.167787 0.461579
vt 0.945781 0.239156
vt 0.945446 0.129958
vt 0.999665 0.129791
vt 1.000000 0.238990
vt 0.886591 0.676957
vt 0.886256 0.567758
vt 0.968881 0.567505
vt 0.969216 0.676703
vt 0.981772 0.458047
vt 0.983007 0.860713
vt 0.983094 0.914933
vt 0.683033 0.000000
vt 0.684435 0.456885
vt 0.000000 0.000000
vn -1.000000 -0.000000 0.000000
vn 0.000000 0.000000 -1.000000
vn 0.000000 -1.000000 0.000000
vn 0.000000 1.000000 0.000000
vn 0.000000 1.000000 0.000100
vn 0.000000 0.999700 -0.022500
vn 1.000000 -0.000000 0.000000
vn -1.000000 -0.000000 0.000100
vn 1.000000 0.000900 0.006100
vn -0.938100 -0.001400 -0.346400
vn -1.000000 0.000700 -0.007000
vn 0.938100 -0.001400 -0.346400
vn -1.000000 0.000900 0.006100
vn 1.000000 -0.000000 0.000100
vn -0.996900 0.000100 0.079100
vn 0.000000 0.999900 -0.013900
vn 1.000000 0.000400 -0.000000
vn -1.000000 0.000400 -0.000000
vn 1.000000 0.000700 -0.007000
vn 0.931300 0.000300 -0.364300
vn 0.996900 0.000100 0.079100
vn 0.000000 -0.000000 1.000000
vn -1.000000 -0.000000 -0.000100
vn 0.000000 -0.001500 -1.000000
vn 0.000000 1.000000 0.008800
vn 1.000000 -0.000000 -0.000100
vn -0.931300 0.000300 -0.364300
vn 0.000000 0.999800 -0.019800
vn 0.000000 0.999900 -0.012300
vn 0.000000 0.026700 0.999600
vn 0.000000 0.000300 -1.000000
vn -0.002300 -0.000400 -1.000000
vn 0.000000 0.002400 -1.000000
vn 0.000000 0.999900 0.010200
vn 0.000000 0.999400 -0.035800
vn 0.000000 0.007700 1.000000
usemtl Material
s off
f 16/1/1 28/2/1 4/3/1 2/4/1
f 3/5/2 1/6/2 2/7/2 4/8/2
f 1/9/3 5/10/3 16/11/3 2/12/3
f 5/13/4 6/14/4 15/15/4 16/16/4
f 7/17/4 8/18/4 13/19/4 14/20/4
f 8/21/3 9/22/3 12/23/3 13/24/3
f 9/25/4 10/26/4 11/27/4 12/28/4
f 3/29/5 4/30/5 28/31/5 17/32/5
f 20/33/6 25/34/6 24/35/6 21/36/6
f 1/37/7 3/38/7 17/39/7 5/40/7
f 5/41/1 17/42/1 18/43/1 6/44/1
f 7/45/8 19/46/8 20/47/8 8/48/8
f 8/49/9 20/50/9 21/51/9 9/52/9
f 9/53/10 21/54/10 22/46/10 10/55/10
f 42/56/11 45/57/11 23/58/11 11/59/11
f 11/60/12 23/61/12 24/62/12 12/53/12
f 12/9/13 24/49/13 25/63/13 13/64/13
f 13/48/14 25/65/14 26/66/14 14/67/14
f 15/68/7 27/69/7 28/70/7 16/41/7
f 37/71/3 64/72/3 46/73/3 47/74/3
f 47/75/15 30/76/15 31/77/15 48/78/15
f 62/79/16 32/80/16 31/81/16 61/82/16
f 41/83/1 32/84/1 45/57/1 42/56/1
f 53/85/3 54/86/3 50/87/3 49/88/3
f 39/89/7 62/90/7 61/91/7 38/92/7
f 55/93/7 35/94/7 36/95/7 56/96/7
f 10/97/3 40/98/3 42/99/3 11/100/3
f 37/101/17 44/102/17 43/103/17 64/104/17
f 46/105/18 29/106/18 30/76/18 47/75/18
f 40/107/7 63/108/7 62/90/7 39/89/7
f 48/78/1 31/77/1 32/84/1 41/83/1
f 39/109/3 38/110/3 48/111/3 41/112/3
f 10/59/19 22/113/19 63/108/19 40/107/19
f 52/114/1 60/115/1 59/116/1 51/117/1
f 49/118/20 57/119/20 29/106/20 46/105/20
f 38/110/3 37/71/3 47/74/3 48/111/3
f 38/92/21 61/91/21 44/102/21 37/101/21
f 40/98/3 39/109/3 41/112/3 42/99/3
f 55/120/3 56/121/3 52/122/3 51/123/3
f 53/124/7 33/125/7 34/126/7 54/127/7
f 36/128/22 60/8/22 52/129/22 56/130/22
f 54/131/23 34/132/23 35/133/23 55/134/23
f 54/135/4 55/136/4 51/137/4 50/138/4
f 34/139/24 58/140/24 59/141/24 35/142/24
f 35/143/25 59/144/25 60/145/25 36/146/25
f 51/147/26 59/148/26 58/149/26 50/131/26
f 64/72/3 53/85/3 49/88/3 46/73/3
f 64/104/27 43/103/27 33/125/27 53/124/27
f 50/150/1 58/151/1 57/119/1 49/118/1
f 6/152/7 18/43/7 19/152/7 7/45/7
f 15/14/3 6/152/3 8/24/3 13/152/3
f 14/152/1 26/66/1 27/152/1 15/68/1
f 23/152/28 45/57/28 63/152/28 22/113/28
f 30/152/29 29/106/29 43/152/29 44/102/29
f 31/81/30 30/76/30 44/102/30 61/91/30
f 11/60/31 23/113/31 22/59/31 10/100/31
f 25/33/32 20/49/32 8/152/32 26/65/32
f 43/104/33 64/73/33 46/106/33 29/106/33
f 33/152/34 57/151/34 58/139/34 34/125/34
f 18/152/35 27/66/35 26/152/35 19/43/35
f 18/152/36 17/42/36 28/31/36 27/69/36
