# Blender v2.76 (sub 0) OBJ File: 'outer_city_wall.blend'
# www.blender.org
mtllib outer_city_wall.mtl
o Cube
v 0.291486 -1.060974 -2.497314
v -0.185602 -1.060974 -2.497314
v 0.291486 0.939026 -2.497313
v -0.185603 0.939026 -2.497313
v 0.291486 -1.060974 -2.140649
v 0.291486 -1.060974 -2.147941
v 0.291486 -1.060974 -1.781543
v 0.291486 -1.060974 -1.782800
v 0.291486 -1.060974 -1.390404
v 0.291486 -1.060974 -1.391277
v -0.185602 -1.060974 -1.391277
v -0.185602 -1.060974 -1.390404
v -0.185602 -1.060974 -1.782800
v -0.185602 -1.060974 -1.781543
v -0.185602 -1.060974 -2.147941
v -0.185602 -1.060974 -2.140649
v 0.291486 0.939026 -2.140648
v 0.291486 0.666592 -2.138627
v 0.291485 0.682580 -1.781543
v 0.291485 0.939026 -1.782799
v 0.291485 0.939026 -1.390403
v 0.291485 0.682525 -1.391276
v -0.185602 0.682525 -1.391276
v -0.185602 0.939026 -1.390403
v -0.185602 0.939026 -1.782799
v -0.185602 0.682580 -1.781543
v -0.185603 0.666592 -2.138627
v -0.185603 0.939026 -2.140648
v -0.185602 0.686169 -0.315382
v -0.185602 0.691368 -0.684505
v -0.185602 0.953244 -0.689265
v -0.185602 0.951618 -1.041278
v 0.291485 0.943303 -0.313700
v 0.291485 0.935153 0.097743
v 0.291485 0.698269 0.097396
v 0.291485 0.676197 0.458312
v 0.291486 -1.060974 -0.684506
v 0.291486 -1.060974 -0.689266
v 0.291486 -1.060974 -1.041278
v 0.291486 -1.060974 -1.044562
v -0.185602 -1.060974 -1.041278
v -0.185602 -1.060974 -1.044562
v 0.291485 0.686169 -0.315382
v 0.291485 0.691368 -0.684505
v -0.185602 0.684292 -1.044561
v -0.185602 -1.060974 -0.315383
v -0.185602 -1.060974 -0.684506
v -0.185602 -1.060974 -0.689266
v -0.185602 -1.060974 -0.313701
v -0.185602 -1.060974 0.097742
v -0.185602 -1.060974 0.097395
v -0.185602 -1.060974 0.458312
v 0.291486 -1.060974 -0.313701
v 0.291486 -1.060974 0.097742
v 0.291486 -1.060974 0.097395
v 0.291486 -1.060974 0.458312
v -0.185602 0.943303 -0.313700
v -0.185602 0.935153 0.097743
v -0.185602 0.698269 0.097396
v -0.185602 0.676197 0.458312
v 0.291485 0.953244 -0.689265
v 0.291485 0.951618 -1.041278
v 0.291485 0.684292 -1.044561
v 0.291486 -1.060974 -0.315383
vt 0.684435 0.461829
vt 0.683030 0.919601
vt 0.601395 0.919350
vt 0.602799 0.461579
vt 0.684435 0.457769
vt 0.685839 0.000000
vt 0.795038 0.000335
vt 0.793633 0.458104
vt 0.886256 0.000250
vt 0.967892 0.000000
vt 0.968226 0.109199
vt 0.886591 0.109449
vt 0.490815 0.570782
vt 0.489146 0.570777
vt 0.489481 0.461579
vt 0.491150 0.461584
vt 0.084179 0.860911
vt 0.168042 0.861168
vt 0.167707 0.970367
vt 0.083844 0.970110
vt 0.488572 0.570777
vt 0.488285 0.570778
vt 0.487950 0.461580
vt 0.488237 0.461579
vt 0.705039 0.856049
vt 0.794853 0.856325
vt 0.794518 0.965524
vt 0.704704 0.965248
vt 0.174175 0.570778
vt 0.173975 0.570777
vt 0.174310 0.461579
vt 0.174510 0.461579
vt 0.886591 0.458047
vt 0.886256 0.348848
vt 0.967891 0.348598
vt 0.968226 0.457797
vt 0.425257 0.570777
vt 0.425592 0.461579
vt 0.487950 0.461770
vt 0.487615 0.570969
vt 0.886591 0.895858
vt 0.886256 0.786660
vt 0.967975 0.786409
vt 0.968310 0.895608
vt 0.083509 0.864245
vt 0.083844 0.973443
vt 0.025149 0.973623
vt 0.024814 0.864425
vt 0.168560 0.970385
vt 0.168225 0.861186
vt 0.258038 0.860911
vt 0.258373 0.970109
vt 0.283509 0.973623
vt 0.283174 0.864424
vt 0.341882 0.864244
vt 0.342217 0.973443
vt 0.423853 0.461579
vt 0.425257 0.919350
vt 0.343621 0.919601
vt 0.342217 0.461829
vt 0.972750 0.458052
vt 0.971346 0.915824
vt 0.972000 0.853469
vt 0.971081 0.458047
vt 0.258373 0.461579
vt 0.257455 0.857001
vt 0.175734 0.860911
vt 0.174510 0.461836
vt 0.976219 0.458047
vt 0.977443 0.857122
vt 0.977336 0.915820
vt 0.975931 0.458048
vt 0.884852 0.458047
vt 0.886256 0.915819
vt 0.796442 0.916094
vt 0.795038 0.458323
vt 0.978867 0.458048
vt 0.977463 0.915820
vt 0.978667 0.458047
vt 0.421575 0.000802
vt 0.422801 0.400269
vt 0.343442 0.400108
vt 0.342217 0.001046
vt 0.979067 0.458047
vt 0.980291 0.857109
vt 0.980272 0.915819
vt 0.795038 0.457772
vt 0.796442 0.000000
vt 0.974527 0.915820
vt 0.974419 0.857122
vt 0.975644 0.458047
vt 0.167707 0.461836
vt 0.166483 0.860911
vt 0.084763 0.857001
vt 0.083844 0.461579
vt 0.974419 0.458047
vt 0.973500 0.853469
vt 0.974154 0.915824
vt 0.491647 0.640624
vt 0.491906 0.556137
vt 0.601104 0.556472
vt 0.600845 0.640959
vt 0.503987 0.000549
vt 0.505218 0.401636
vt 0.504312 0.461579
vt 0.502898 0.000553
vt 0.426311 0.912175
vt 0.425976 0.802976
vt 0.506545 0.802729
vt 0.506880 0.911928
vt 0.422327 0.000800
vt 0.423740 0.461454
vt 0.491907 0.555752
vt 0.492196 0.461579
vt 0.601395 0.461914
vt 0.601106 0.556087
vt 0.886591 0.567505
vt 0.886256 0.458306
vt 0.970746 0.458047
vt 0.971081 0.567246
vt 0.262108 0.000800
vt 0.260694 0.461454
vt 0.180122 0.461579
vt 0.181537 0.000553
vt 0.340982 0.461579
vt 0.342217 0.864244
vt 0.259593 0.859446
vt 0.258373 0.461832
vt 0.491150 0.802394
vt 0.491394 0.723036
vt 0.600592 0.723371
vt 0.600349 0.802729
vt 0.180447 0.000549
vt 0.179217 0.401636
vt 0.094733 0.400186
vt 0.095960 0.000290
vt 0.588474 0.000290
vt 0.589701 0.400186
vt 0.262859 0.000802
vt 0.261634 0.400269
vt 0.486447 0.570969
vt 0.486782 0.680167
vt 0.425592 0.680355
vt 0.425257 0.571156
vt 0.491396 0.722284
vt 0.491643 0.641714
vt 0.600842 0.642049
vt 0.600595 0.722619
vt 0.886591 0.348598
vt 0.886256 0.239399
vt 0.965612 0.239156
vt 0.965947 0.348354
vt 0.340993 0.400108
vt 0.083844 0.461832
vt 0.082624 0.859446
vt 0.000000 0.864245
vt 0.001235 0.461579
vt 0.588859 0.000289
vt 0.590267 0.459040
vt 0.425592 0.789737
vt 0.425257 0.680539
vt 0.485201 0.680355
vt 0.485536 0.789553
vt 0.886256 0.677210
vt 0.968865 0.676957
vt 0.969199 0.786155
vt 0.886591 0.786409
vt 0.945446 0.129958
vt 0.945111 0.239156
vt 0.886256 0.238975
vt 0.886591 0.129777
vt 0.095575 0.000289
vt 0.094168 0.459039
vt 0.000000 0.456885
vt 0.001402 0.000000
vt 0.684435 0.458439
vt 0.794853 0.855714
vt 0.685654 0.856049
vt 0.981693 0.458047
vt 0.980291 0.914933
vt 0.980378 0.860713
vt 0.981613 0.458047
vt 0.168122 0.570777
vt 0.168042 0.570778
vt 0.167707 0.461579
vt 0.167787 0.461579
vt 0.945781 0.239156
vt 0.999665 0.129791
vt 1.000000 0.238990
vt 0.886591 0.676957
vt 0.886256 0.567758
vt 0.968881 0.567505
vt 0.969216 0.676703
vt 0.981772 0.458047
vt 0.983007 0.860713
vt 0.983094 0.914933
vt 0.683033 0.000000
vt 0.684435 0.456885
vt 0.507215 0.912216
vt 0.506880 0.803018
vt 0.601060 0.802729
vt 0.601395 0.911928
vn -1.000000 -0.000000 0.000000
vn 0.000000 0.000000 -1.000000
vn 0.000000 -1.000000 0.000000
vn 0.000000 1.000000 0.000000
vn 0.000000 0.007400 1.000000
vn 0.000000 0.999000 -0.044700
vn 0.000000 -0.004900 -1.000000
vn 0.000000 -0.003400 1.000000
vn 1.000000 -0.000000 0.000000
vn -1.000000 -0.000000 0.000100
vn 1.000000 -0.000000 0.000100
vn 0.000000 1.000000 -0.004600
vn 0.000000 0.999900 0.014100
vn 0.000000 0.012300 -0.999900
vn 0.000000 1.000000 -0.005100
vn 0.000000 0.018200 0.999800
vn 0.000000 0.006500 -1.000000
vn 0.000000 -0.000000 1.000000
vn -1.000000 -0.000000 0.000200
vn 0.000000 -0.001500 1.000000
vn 0.000000 0.998100 0.061000
vn 0.000000 0.999800 0.019800
usemtl Material
s off
f 16/1/1 28/2/1 4/3/1 2/4/1
f 3/5/2 1/6/2 2/7/2 4/8/2
f 1/9/3 5/10/3 16/11/3 2/12/3
f 5/13/4 6/14/4 15/15/4 16/16/4
f 6/17/3 7/18/3 14/19/3 15/20/3
f 7/21/4 8/22/4 13/23/4 14/24/4
f 8/25/3 9/26/3 12/27/3 13/28/3
f 9/29/4 10/30/4 11/31/4 12/32/4
f 3/33/4 4/34/4 28/35/4 17/36/4
f 17/37/5 28/38/5 27/39/5 18/40/5
f 18/41/6 27/42/6 26/43/6 19/44/6
f 19/45/7 26/46/7 25/47/7 20/48/7
f 20/49/4 25/50/4 24/51/4 21/52/4
f 21/53/8 24/54/8 23/55/8 22/56/8
f 1/57/9 3/58/9 17/59/9 5/60/9
f 5/61/1 17/62/1 18/63/1 6/64/1
f 6/65/9 18/66/9 19/67/9 7/68/9
f 7/69/10 19/70/10 20/71/10 8/72/10
f 8/73/9 20/74/9 21/75/9 9/76/9
f 9/77/10 21/78/10 22/70/10 10/79/10
f 42/80/1 45/81/1 23/82/1 11/83/1
f 11/84/11 23/85/11 24/86/11 12/77/11
f 12/9/1 24/73/1 25/87/1 13/88/1
f 13/72/11 25/89/11 26/90/11 14/91/11
f 14/92/1 26/93/1 27/94/1 15/95/1
f 15/96/9 27/97/9 28/98/9 16/61/9
f 37/99/3 64/100/3 46/101/3 47/102/3
f 47/103/1 30/104/1 31/105/1 48/106/1
f 62/107/12 32/108/12 31/109/12 61/110/12
f 41/111/1 32/112/1 45/81/1 42/80/1
f 53/113/3 54/114/3 50/115/3 49/116/3
f 44/117/13 30/118/13 29/119/13 43/120/13
f 39/121/9 62/122/9 61/123/9 38/124/9
f 55/125/9 35/126/9 36/127/9 56/128/9
f 10/129/3 40/130/3 42/131/3 11/132/3
f 37/133/9 44/134/9 43/135/9 64/136/9
f 46/137/1 29/138/1 30/104/1 47/103/1
f 40/139/9 63/140/9 62/122/9 39/121/9
f 63/141/14 45/142/14 32/143/14 62/144/14
f 48/106/1 31/105/1 32/112/1 41/111/1
f 39/145/3 38/146/3 48/147/3 41/148/3
f 22/149/15 23/150/15 45/151/15 63/152/15
f 10/83/9 22/153/9 63/140/9 40/139/9
f 52/154/1 60/155/1 59/156/1 51/157/1
f 49/158/1 57/159/1 29/138/1 46/137/1
f 38/146/3 37/99/3 47/102/3 48/147/3
f 61/160/16 31/161/16 30/162/16 44/163/16
f 38/124/9 61/123/9 44/134/9 37/133/9
f 40/130/3 39/145/3 41/148/3 42/131/3
f 55/164/3 56/165/3 52/166/3 51/167/3
f 43/168/17 29/169/17 57/170/17 33/171/17
f 53/172/9 33/173/9 34/174/9 54/175/9
f 36/176/18 60/8/18 52/177/18 56/178/18
f 54/179/19 34/180/19 35/181/19 55/182/19
f 54/183/4 55/184/4 51/185/4 50/186/4
f 34/187/20 58/168/20 59/188/20 35/189/20
f 35/190/21 59/191/21 60/192/21 36/193/21
f 51/194/11 59/195/11 58/196/11 50/179/11
f 64/100/3 53/113/3 49/116/3 46/101/3
f 64/136/9 43/135/9 33/173/9 53/172/9
f 50/197/1 58/198/1 57/159/1 49/158/1
f 33/199/22 57/200/22 58/201/22 34/202/22
